<?xml version="1.0" encoding="UTF-8" standalone="no"?>
<!DOCTYPE svg PUBLIC "-//W3C//DTD SVG 1.1//EN" "http://www.w3.org/Graphics/SVG/1.1/DTD/svg11.dtd">
<svg width="100%" height="100%" viewBox="0 0 1536 1536" version="1.1" xmlns="http://www.w3.org/2000/svg" xmlns:xlink="http://www.w3.org/1999/xlink" xml:space="preserve" xmlns:serif="http://www.serif.com/" style="fill-rule:evenodd;clip-rule:evenodd;stroke-linejoin:round;stroke-miterlimit:2;">
    <g transform="matrix(0.940025,0,0,0.940025,46.060491,59.690842)">
        <path d="M557.822,584.808L558.31,585.081L558.46,585.163L673.145,650.736L615.411,528.644L614.94,527.643L614.612,526.911L611.748,518.568L610.561,509.804L611.046,501.161L613.099,492.854L616.651,485.058L621.662,477.967L628.088,471.829L635.811,466.957L644.396,463.73L653.283,462.344L662.108,462.762L670.581,464.893L678.462,468.638L685.515,473.899L691.481,480.558L695.93,488.084L696.316,488.919L750.406,610.807L773.492,477.073L773.59,476.534L776.089,467.851L780.128,459.991L785.499,453.161L792.013,447.511L799.511,443.183L807.83,440.344L816.752,439.195L825.95,439.919L834.799,442.53L842.721,446.792L849.477,452.416L854.933,459.139L858.997,466.744L861.572,475.042L862.535,483.826L861.766,492.83L861.665,493.368L835.429,626.521L929.51,532.013L929.9,531.631L929.992,531.55L937.014,525.932L944.966,521.846L953.433,519.453L962.132,518.772L970.807,519.81L979.199,522.574L987.003,527.044L993.868,533.127L999.34,540.437L1003.148,548.466L1005.293,556.88L1005.824,565.43L1004.773,573.923L1002.136,582.168L997.896,589.929L992.239,596.697L991.671,597.264L990.874,598.03L893.318,691.424L1023.863,671.171L1024.033,671.146L1024.586,671.067L1033.797,670.713L1042.682,672.233L1050.907,675.443L1058.241,680.144L1064.504,686.155L1069.528,693.312L1073.125,701.433L1075.103,710.276L1075.319,719.316L1073.824,728.012L1070.773,736.113L1066.309,743.437L1060.543,749.822L1053.566,755.075L1045.506,758.952L1036.663,761.16L1036.039,761.253L903.141,778.474L1021.029,842.014L1021.657,842.366L1029.126,847.588L1035.268,854.09L1039.907,861.489L1043.01,869.513L1044.561,877.948L1044.516,886.605L1042.804,895.261L1039.372,903.626L1034.364,911.179L1028.102,917.478L1020.852,922.367L1012.854,925.742L1004.325,927.512L995.495,927.57L986.654,925.814L978.178,922.192L977.69,921.919L977.54,921.837L862.855,856.264L920.589,978.356L921.06,979.357L921.388,980.089L924.252,988.432L925.439,997.196L924.954,1005.839L922.901,1014.146L919.349,1021.942L914.338,1029.033L907.912,1035.171L900.189,1040.043L891.604,1043.27L882.717,1044.656L873.892,1044.238L865.419,1042.107L857.538,1038.362L850.485,1033.101L844.519,1026.442L840.07,1018.916L839.684,1018.081L785.593,896.193L762.508,1029.927L762.41,1030.466L759.911,1039.149L755.872,1047.009L750.501,1053.839L743.987,1059.489L736.489,1063.817L728.169,1066.656L719.247,1067.805L710.05,1067.081L701.201,1064.47L693.279,1060.208L686.523,1054.584L681.067,1047.861L677.003,1040.256L674.428,1031.958L673.465,1023.174L674.234,1014.17L674.335,1013.632L700.571,880.479L606.49,974.987L606.1,975.369L606.008,975.45L598.986,981.068L591.034,985.154L582.567,987.547L573.868,988.228L565.193,987.189L556.801,984.426L548.997,979.956L542.132,973.873L536.66,966.563L532.852,958.534L530.707,950.12L530.176,941.57L531.227,933.077L533.863,924.832L538.104,917.071L543.761,910.303L544.328,909.736L545.126,908.97L642.682,815.576L512.137,835.829L511.967,835.854L511.414,835.933L502.203,836.287L493.318,834.767L485.093,831.557L477.759,826.856L471.496,820.845L466.472,813.688L462.875,805.567L460.897,796.724L460.681,787.684L462.176,778.988L465.227,770.887L469.691,763.563L475.457,757.178L482.434,751.925L490.494,748.048L499.336,745.84L499.961,745.747L632.859,728.526L514.971,664.986L514.343,664.634L506.874,659.412L500.732,652.91L496.093,645.511L492.99,637.487L491.438,629.052L491.484,620.395L493.196,611.739L496.628,603.374L501.636,595.821L507.898,589.522L515.148,584.633L523.146,581.258L531.675,579.488L540.505,579.43L549.346,581.186L557.822,584.808Z"/>
    </g>
    <g transform="matrix(59.09054,0,0,59.09054,58.894695,58.890618)">
        <path d="M2.073,16.738C1.367,15.258 1,13.64 1,12C1,5.966 5.966,1 12,1C18.035,1 23,5.966 23,12C23,18.035 18.035,23 12,23C10.407,23 8.833,22.654 7.38,21.984C7.227,21.932 7.064,21.918 6.901,21.943L3.538,22.927L3.514,22.934L3,23C1.903,23 1,22.098 1,21C1,20.865 1.014,20.73 1.042,20.598C1.049,20.562 1.058,20.526 1.07,20.491L2.118,17.25C2.148,17.078 2.132,16.901 2.073,16.738ZM3.892,15.906C3.892,15.907 3.893,15.907 3.893,15.908C3.903,15.929 3.913,15.951 3.922,15.973C3.922,15.974 3.922,15.975 3.923,15.976C4.142,16.532 4.191,17.14 4.063,17.724C4.056,17.755 4.047,17.786 4.037,17.817L3.01,20.991C3.019,20.991 3.024,20.992 3.02,20.994L6.389,20.009C6.418,20.001 6.446,19.994 6.475,19.988C7.027,19.879 7.598,19.927 8.124,20.126C8.147,20.135 8.17,20.144 8.192,20.155C9.384,20.712 10.684,21 12,21C16.938,21 21,16.938 21,12C21,7.063 16.938,3 12,3C7.063,3 3,7.063 3,12C3,13.353 3.305,14.688 3.892,15.906Z"/>
    </g>
</svg>
