<?xml version="1.0" encoding="UTF-8" standalone="no"?>
<!DOCTYPE svg PUBLIC "-//W3C//DTD SVG 1.1//EN" "http://www.w3.org/Graphics/SVG/1.1/DTD/svg11.dtd">
<svg width="100%" height="100%" viewBox="0 0 640 640" version="1.1" xmlns="http://www.w3.org/2000/svg" xmlns:xlink="http://www.w3.org/1999/xlink" xml:space="preserve" xmlns:serif="http://www.serif.com/" style="fill-rule:evenodd;clip-rule:evenodd;stroke-linejoin:round;stroke-miterlimit:2;">
    <g transform="matrix(1,0,0,1,-7.960885,0)">
        <g id="Logo" transform="matrix(0.5,0,0,1.014263,7.960885,0)">
            <rect x="0" y="0" width="1280" height="631" style="fill:none;"/>
            <g transform="matrix(12.451605,0,0,6.225803,-14348.450353,-745.482884)">
                <g transform="matrix(0.781174,0.314243,-0.318725,0.770189,422.118245,-456.178978)">
                    <path d="M1122.63,362.62C1123.17,362.217 1123.826,362 1124.5,362C1125.174,362 1125.83,362.217 1126.37,362.62L1132.184,366.95L1139.356,367.999C1140.023,368.097 1140.641,368.407 1141.117,368.883C1141.593,369.359 1141.903,369.977 1142.001,370.644L1143.05,377.816L1147.38,383.63C1147.783,384.17 1148,384.826 1148,385.5C1148,386.174 1147.783,386.83 1147.38,387.37L1143.05,393.184L1142.001,400.356C1141.903,401.023 1141.593,401.641 1141.117,402.117C1140.641,402.593 1140.023,402.903 1139.356,403.001L1132.184,404.05L1126.37,408.38C1125.83,408.783 1125.174,409 1124.5,409C1123.826,409 1123.17,408.783 1122.63,408.38L1116.816,404.05L1109.644,403.001C1108.977,402.903 1108.359,402.593 1107.883,402.117C1107.407,401.641 1107.097,401.023 1106.999,400.356L1105.95,393.184L1101.62,387.37C1101.217,386.83 1101,386.174 1101,385.5C1101,384.826 1101.217,384.17 1101.62,383.63L1105.95,377.816L1106.999,370.644C1107.097,369.977 1107.407,369.359 1107.883,368.883C1108.359,368.407 1108.977,368.097 1109.644,367.999L1116.816,366.95L1122.63,362.62Z"/>
                </g>
                <g transform="matrix(0.75768,0.304792,-0.309139,0.747025,444.782883,-482.996002)">
                    <path d="M1120.197,366.629C1120.19,366.524 1120.186,366.419 1120.186,366.314C1120.186,363.933 1122.119,362 1124.5,362C1126.881,362 1128.814,363.933 1128.814,366.314C1128.814,366.419 1128.81,366.524 1128.803,366.629L1128.049,376.933L1134.802,369.114C1134.87,369.034 1134.942,368.957 1135.016,368.883C1136.7,367.199 1139.433,367.199 1141.117,368.883C1142.801,370.567 1142.801,373.3 1141.117,374.984C1141.043,375.058 1140.966,375.13 1140.886,375.198L1133.067,381.951L1143.371,381.197C1143.476,381.19 1143.581,381.186 1143.686,381.186C1146.067,381.186 1148,383.119 1148,385.5C1148,387.881 1146.067,389.814 1143.686,389.814C1143.581,389.814 1143.476,389.81 1143.371,389.803L1133.067,389.049L1140.886,395.802C1140.966,395.87 1141.043,395.942 1141.117,396.016C1142.801,397.7 1142.801,400.433 1141.117,402.117C1139.433,403.801 1136.7,403.801 1135.016,402.117C1134.942,402.043 1134.87,401.966 1134.802,401.886L1128.049,394.067L1128.803,404.371C1128.81,404.476 1128.814,404.581 1128.814,404.686C1128.814,407.067 1126.881,409 1124.5,409C1122.119,409 1120.186,407.067 1120.186,404.686C1120.186,404.581 1120.19,404.476 1120.197,404.371L1120.951,394.067L1114.198,401.886C1114.13,401.966 1114.058,402.043 1113.984,402.117C1112.3,403.801 1109.567,403.801 1107.883,402.117C1106.199,400.433 1106.199,397.7 1107.883,396.016C1107.957,395.942 1108.034,395.87 1108.114,395.802L1115.933,389.049L1105.629,389.803C1105.524,389.81 1105.419,389.814 1105.314,389.814C1102.933,389.814 1101,387.881 1101,385.5C1101,383.119 1102.933,381.186 1105.314,381.186C1105.419,381.186 1105.524,381.19 1105.629,381.197L1115.933,381.951L1108.114,375.198C1108.034,375.13 1107.957,375.058 1107.883,374.984C1106.199,373.3 1106.199,370.567 1107.883,368.883C1109.567,367.199 1112.3,367.199 1113.984,368.883C1114.058,368.957 1114.13,369.034 1114.198,369.114L1120.951,376.933L1120.197,366.629Z"/>
                </g>
                <g transform="matrix(0.811737,0,0,0.800322,312.271375,-160.081936)">
                    <path d="M1122.023,363.849C1122.349,362.752 1123.356,362 1124.5,362C1125.644,362 1126.651,362.752 1126.977,363.849L1131.308,378.455C1131.325,378.511 1131.355,378.562 1131.397,378.603C1131.438,378.645 1131.489,378.675 1131.545,378.692L1146.151,383.023C1147.248,383.349 1148,384.356 1148,385.5C1148,386.644 1147.248,387.651 1146.151,387.977L1131.545,392.308C1131.489,392.325 1131.438,392.355 1131.397,392.397C1131.355,392.438 1131.325,392.489 1131.308,392.545L1126.977,407.151C1126.651,408.248 1125.644,409 1124.5,409C1123.356,409 1122.349,408.248 1122.023,407.151L1117.692,392.545C1117.675,392.489 1117.645,392.438 1117.603,392.397C1117.562,392.355 1117.511,392.325 1117.455,392.308L1102.849,387.977C1101.752,387.651 1101,386.644 1101,385.5C1101,384.356 1101.752,383.349 1102.849,383.023L1117.455,378.692C1117.511,378.675 1117.562,378.645 1117.603,378.603C1117.645,378.562 1117.675,378.511 1117.692,378.455L1122.023,363.849Z"/>
                </g>
                <g transform="matrix(0.857727,0,0,0.845665,261.048096,-130.525222)">
                    <path d="M1119.56,365.706C1120.2,363.51 1122.213,362 1124.5,362C1126.787,362 1128.8,363.51 1129.44,365.706L1132.074,374.748C1132.094,374.815 1132.135,374.873 1132.191,374.914C1132.247,374.955 1132.316,374.976 1132.385,374.974L1141.798,374.685C1144.085,374.615 1146.143,376.063 1146.85,378.238C1147.557,380.414 1146.742,382.795 1144.852,384.082L1137.066,389.381C1137.009,389.42 1136.966,389.477 1136.944,389.543C1136.923,389.61 1136.924,389.681 1136.948,389.747L1140.131,398.61C1140.904,400.763 1140.164,403.167 1138.313,404.512C1136.462,405.856 1133.946,405.818 1132.138,404.417L1124.692,398.651C1124.637,398.608 1124.57,398.585 1124.5,398.585C1124.43,398.585 1124.363,398.608 1124.308,398.651L1116.862,404.417C1115.054,405.818 1112.538,405.856 1110.687,404.512C1108.836,403.167 1108.096,400.763 1108.869,398.61L1112.052,389.747C1112.076,389.681 1112.077,389.61 1112.056,389.543C1112.034,389.477 1111.991,389.42 1111.934,389.381L1104.148,384.082C1102.258,382.795 1101.443,380.414 1102.15,378.238C1102.857,376.063 1104.915,374.615 1107.202,374.685L1116.615,374.974C1116.684,374.976 1116.753,374.955 1116.809,374.914C1116.865,374.873 1116.906,374.815 1116.926,374.748L1119.56,365.706Z"/>
                </g>
            </g>
        </g>
    </g>
</svg>
