<?xml version="1.0" encoding="UTF-8" standalone="no"?>
<!DOCTYPE svg PUBLIC "-//W3C//DTD SVG 1.1//EN" "http://www.w3.org/Graphics/SVG/1.1/DTD/svg11.dtd">
<svg width="100%" height="100%" viewBox="0 0 24 24" version="1.1" xmlns="http://www.w3.org/2000/svg" xmlns:xlink="http://www.w3.org/1999/xlink" xml:space="preserve" xmlns:serif="http://www.serif.com/" style="fill-rule:evenodd;clip-rule:evenodd;stroke-linecap:round;stroke-linejoin:round;stroke-miterlimit:1.5;">
    <g transform="matrix(0.382979,0,0,0.395191,-418.659574,-140.34606)">
        <path d="M1119.56,365.706C1120.2,363.51 1122.213,362 1124.5,362C1126.787,362 1128.8,363.51 1129.44,365.706L1132.074,374.748C1132.094,374.815 1132.135,374.873 1132.191,374.914C1132.247,374.955 1132.316,374.976 1132.385,374.974L1141.798,374.685C1144.085,374.615 1146.143,376.063 1146.85,378.238C1147.557,380.414 1146.742,382.795 1144.852,384.082L1137.066,389.381C1137.009,389.42 1136.966,389.477 1136.944,389.543C1136.923,389.61 1136.924,389.681 1136.948,389.747L1140.131,398.61C1140.904,400.763 1140.164,403.167 1138.313,404.512C1136.462,405.856 1133.946,405.818 1132.138,404.417L1124.692,398.651C1124.637,398.608 1124.57,398.585 1124.5,398.585C1124.43,398.585 1124.363,398.608 1124.308,398.651L1116.862,404.417C1115.054,405.818 1112.538,405.856 1110.687,404.512C1108.836,403.167 1108.096,400.763 1108.869,398.61L1112.052,389.747C1112.076,389.681 1112.077,389.61 1112.056,389.543C1112.034,389.477 1111.991,389.42 1111.934,389.381L1104.148,384.082C1102.258,382.795 1101.443,380.414 1102.15,378.238C1102.857,376.063 1104.915,374.615 1107.202,374.685L1116.615,374.974C1116.684,374.976 1116.753,374.955 1116.809,374.914C1116.865,374.873 1116.906,374.815 1116.926,374.748L1119.56,365.706Z" style="fill:none;stroke:black;stroke-width:5.14px;"/>
    </g>
</svg>
