<?xml version="1.0" encoding="UTF-8" standalone="no"?>
<!DOCTYPE svg PUBLIC "-//W3C//DTD SVG 1.1//EN" "http://www.w3.org/Graphics/SVG/1.1/DTD/svg11.dtd">
<svg width="100%" height="100%" viewBox="0 0 640 640" version="1.1" xmlns="http://www.w3.org/2000/svg" xmlns:xlink="http://www.w3.org/1999/xlink" xml:space="preserve" xmlns:serif="http://www.serif.com/" style="fill-rule:evenodd;clip-rule:evenodd;stroke-linejoin:round;stroke-miterlimit:2;">
    <g id="Logo" transform="matrix(0.5,0,0,1.014263,0,0)">
        <rect x="0" y="0" width="1280" height="631" style="fill:none;"/>
        <g transform="matrix(17.335962,3.486871,-7.07321,8.546087,-16127.566525,-6900.003626)">
            <path d="M1102.328,376.316C1100.482,372.69 1101.075,368.138 1104.106,365.106C1107.138,362.075 1111.69,361.482 1115.316,363.328C1116.575,359.459 1120.213,356.659 1124.5,356.659C1128.787,356.659 1132.425,359.459 1133.684,363.328C1137.31,361.482 1141.862,362.075 1144.894,365.106C1147.925,368.138 1148.518,372.69 1146.672,376.316C1150.541,377.575 1153.341,381.213 1153.341,385.5C1153.341,389.787 1150.541,393.425 1146.672,394.684C1148.518,398.31 1147.925,402.862 1144.894,405.894C1141.862,408.925 1137.31,409.518 1133.684,407.672C1132.425,411.541 1128.787,414.341 1124.5,414.341C1120.213,414.341 1116.575,411.541 1115.316,407.672C1111.69,409.518 1107.138,408.925 1104.106,405.894C1101.075,402.862 1100.482,398.31 1102.328,394.684C1098.459,393.425 1095.659,389.787 1095.659,385.5C1095.659,381.213 1098.459,377.575 1102.328,376.316ZM1120.197,366.629L1120.951,376.933L1114.198,369.114C1114.13,369.034 1114.058,368.957 1113.984,368.883C1112.3,367.199 1109.567,367.199 1107.883,368.883C1106.199,370.567 1106.199,373.3 1107.883,374.984C1107.957,375.058 1108.034,375.13 1108.114,375.198L1115.933,381.951L1105.629,381.197C1105.524,381.19 1105.419,381.186 1105.314,381.186C1102.933,381.186 1101,383.119 1101,385.5C1101,387.881 1102.933,389.814 1105.314,389.814C1105.419,389.814 1105.524,389.81 1105.629,389.803L1115.933,389.049L1108.114,395.802C1108.034,395.87 1107.957,395.942 1107.883,396.016C1106.199,397.7 1106.199,400.433 1107.883,402.117C1109.567,403.801 1112.3,403.801 1113.984,402.117C1114.058,402.043 1114.13,401.966 1114.198,401.886L1120.951,394.067L1120.197,404.371C1120.19,404.476 1120.186,404.581 1120.186,404.686C1120.186,407.067 1122.119,409 1124.5,409C1126.881,409 1128.814,407.067 1128.814,404.686C1128.814,404.581 1128.81,404.476 1128.803,404.371L1128.049,394.067L1134.802,401.886C1134.87,401.966 1134.942,402.043 1135.016,402.117C1136.7,403.801 1139.433,403.801 1141.117,402.117C1142.801,400.433 1142.801,397.7 1141.117,396.016C1141.043,395.942 1140.966,395.87 1140.886,395.802L1133.067,389.049L1143.371,389.803C1143.476,389.81 1143.581,389.814 1143.686,389.814C1146.067,389.814 1148,387.881 1148,385.5C1148,383.119 1146.067,381.186 1143.686,381.186C1143.581,381.186 1143.476,381.19 1143.371,381.197L1133.067,381.951L1140.886,375.198C1140.966,375.13 1141.043,375.058 1141.117,374.984C1142.801,373.3 1142.801,370.567 1141.117,368.883C1139.433,367.199 1136.7,367.199 1135.016,368.883C1134.942,368.957 1134.87,369.034 1134.802,369.114L1128.049,376.933L1128.803,366.629C1128.81,366.524 1128.814,366.419 1128.814,366.314C1128.814,363.933 1126.881,362 1124.5,362C1122.119,362 1120.186,363.933 1120.186,366.314C1120.186,366.419 1120.19,366.524 1120.197,366.629Z"/>
        </g>
    </g>
</svg>
