<?xml version="1.0" encoding="UTF-8" standalone="no"?><!DOCTYPE svg PUBLIC "-//W3C//DTD SVG 1.1//EN" "http://www.w3.org/Graphics/SVG/1.1/DTD/svg11.dtd"><svg width="100%" height="100%" viewBox="0 0 1000 200" version="1.1" xmlns="http://www.w3.org/2000/svg" xmlns:xlink="http://www.w3.org/1999/xlink" xml:space="preserve" xmlns:serif="http://www.serif.com/" style="fill-rule:evenodd;clip-rule:evenodd;stroke-linejoin:round;stroke-miterlimit:2;"><path d="M629.73,19.898c3.953,-1.021 8.129,-0.74 11.909,0.803c3.78,1.542 6.961,4.263 9.072,7.758l11.587,19.192l19.314,11.383c3.517,2.073 6.272,5.225 7.854,8.989c1.582,3.763 1.908,7.937 0.929,11.9l-5.377,21.764l5.608,21.706c1.021,3.953 0.74,8.129 -0.803,11.909c-1.542,3.78 -4.263,6.961 -7.758,9.072l-19.192,11.587l-11.383,19.314c-2.073,3.517 -5.225,6.272 -8.989,7.854c-3.763,1.582 -7.937,1.908 -11.9,0.929l-21.764,-5.377l-21.706,5.608c-3.953,1.021 -8.129,0.74 -11.909,-0.803c-3.78,-1.542 -6.961,-4.263 -9.072,-7.758l-11.587,-19.192l-19.314,-11.383c-3.517,-2.073 -6.272,-5.225 -7.854,-8.989c-1.582,-3.763 -1.908,-7.937 -0.929,-11.9l5.377,-21.764l-5.608,-21.706c-1.021,-3.953 -0.74,-8.129 0.803,-11.909c1.542,-3.78 4.263,-6.961 7.758,-9.072l19.192,-11.587l11.383,-19.314c2.073,-3.517 5.225,-6.272 8.989,-7.854c3.763,-1.582 7.937,-1.908 11.9,-0.929l21.764,5.377l21.706,-5.608Z"/><path d="M344.386,69.427l13.943,-47.014c2.184,-7.363 8.949,-12.413 16.629,-12.413c7.68,0 14.446,5.05 16.629,12.413l13.943,47.014l47.014,13.943c7.363,2.184 12.413,8.949 12.413,16.629c0,7.68 -5.05,14.446 -12.413,16.629l-47.014,13.943l-13.943,47.014c-2.184,7.363 -8.949,12.413 -16.629,12.413c-7.68,0 -14.446,-5.05 -16.629,-12.413l-13.943,-47.014l-47.014,-13.943c-7.363,-2.184 -12.413,-8.949 -12.413,-16.629c0,-7.68 5.05,-14.446 12.413,-16.629l47.014,-13.943Z"/><path d="M154.386,31.466c0.179,-0.55 0.378,-1.093 0.596,-1.628c4.95,-12.132 18.819,-17.963 30.951,-13.013c12.132,4.95 17.963,18.819 13.013,30.951c-0.218,0.535 -0.456,1.062 -0.713,1.58l-5.116,10.316l10.261,-5.226c0.515,-0.262 1.04,-0.506 1.573,-0.73c12.079,-5.079 26.009,0.605 31.087,12.684c5.079,12.079 -0.605,26.009 -12.684,31.087c-0.533,0.224 -1.074,0.429 -1.622,0.613l-10.912,3.676l10.951,3.56c0.55,0.179 1.093,0.378 1.628,0.596c12.132,4.95 17.963,18.819 13.013,30.951c-4.95,12.132 -18.819,17.963 -30.951,13.013c-0.535,-0.218 -1.062,-0.456 -1.58,-0.713l-10.316,-5.116l5.226,10.261c0.262,0.515 0.506,1.04 0.73,1.573c5.079,12.079 -0.605,26.009 -12.684,31.087c-12.079,5.079 -26.009,-0.605 -31.087,-12.684c-0.224,-0.533 -0.429,-1.074 -0.613,-1.622l-3.676,-10.912l-3.56,10.951c-0.179,0.55 -0.378,1.093 -0.596,1.628c-4.95,12.132 -18.819,17.963 -30.951,13.013c-12.132,-4.95 -17.963,-18.819 -13.013,-30.951c0.218,-0.535 0.456,-1.062 0.713,-1.58l5.116,-10.316l-10.261,5.226c-0.515,0.262 -1.04,0.506 -1.573,0.73c-12.079,5.079 -26.009,-0.605 -31.087,-12.684c-5.079,-12.079 0.605,-26.009 12.684,-31.087c0.533,-0.224 1.074,-0.429 1.622,-0.613l10.912,-3.676l-10.951,-3.56c-0.55,-0.179 -1.093,-0.378 -1.628,-0.596c-12.132,-4.95 -17.963,-18.819 -13.013,-30.951c4.95,-12.132 18.819,-17.963 30.951,-13.013c0.535,0.218 1.062,0.456 1.58,0.713l10.316,5.116l-5.226,-10.261c-0.262,-0.515 -0.506,-1.04 -0.73,-1.573c-5.079,-12.079 0.605,-26.009 12.684,-31.087c12.079,-5.079 26.009,0.605 31.087,12.684c0.224,0.533 0.429,1.074 0.613,1.622l3.676,10.912l3.56,-10.951Z"/><path d="M812.511,63.126l8.054,-27.646c3.423,-11.749 14.191,-19.828 26.429,-19.828c12.238,0 23.006,8.079 26.429,19.828l8.054,27.646l28.782,-0.883c12.232,-0.375 23.243,7.369 27.025,19.008c3.782,11.639 -0.574,24.377 -10.691,31.263l-23.804,16.203l9.734,27.1c4.137,11.517 0.174,24.383 -9.727,31.576c-9.901,7.193 -23.361,6.987 -33.037,-0.507l-22.766,-17.632l-22.766,17.632c-9.675,7.494 -23.136,7.7 -33.037,0.507c-9.901,-7.193 -13.864,-20.059 -9.727,-31.576l9.734,-27.1l-23.804,-16.203c-10.117,-6.886 -14.473,-19.624 -10.691,-31.263c3.782,-11.639 14.793,-19.384 27.025,-19.008l28.782,0.883Z"/></svg>